# Blender v2.74 (sub 0) OBJ File: ''
# www.blender.org
mtllib lampshade.mtl
o Lampshade
v 1.020459 1.108140 -1.564300
v 1.007019 1.088026 -1.564300
v 1.007019 1.040573 -1.564300
v 1.020459 1.020459 -1.564300
v 1.040573 1.121580 -1.564300
v 1.040573 1.007019 -1.564300
v 1.064300 1.002300 -1.564300
v 1.064300 1.126300 -1.564300
v 1.088026 1.007019 -1.564300
v 1.088026 1.121580 -1.564300
v 1.108140 1.020459 -1.564300
v 1.108140 1.108140 -1.564300
v 1.121580 1.088026 -1.564300
v 1.121580 1.040573 -1.564300
v 1.126300 1.064300 -1.564300
v 1.577449 1.154039 -1.329800
v 2.028599 1.243778 -1.095300
v 2.023880 1.267504 -1.095300
v 1.572730 1.177765 -1.329800
v 1.577449 0.974560 -1.329800
v 2.028599 0.884821 -1.095300
v 1.572730 0.950834 -1.329800
v 1.504046 0.785017 -1.329800
v 1.886513 0.529462 -1.095300
v 1.490607 0.764903 -1.329800
v 1.363696 0.637993 -1.329800
v 1.619252 0.255526 -1.095300
v 1.343582 0.624553 -1.329800
v 1.177765 0.555869 -1.329800
v 1.267504 0.104720 -1.095300
v 1.154039 0.551150 -1.329800
v 0.974560 0.551150 -1.329800
v 0.884821 0.100000 -1.095300
v 0.950834 0.555869 -1.329800
v 0.785017 0.624553 -1.329800
v 0.529462 0.242087 -1.095300
v 0.764903 0.637993 -1.329800
v 0.637993 0.764903 -1.329800
v 0.255526 0.509347 -1.095300
v 0.624553 0.785017 -1.329800
v 0.555869 0.950834 -1.329800
v 1.002300 1.064300 -1.564300
v 0.104720 0.861095 -1.095300
v 0.551150 0.974560 -1.329800
v 0.551150 1.154039 -1.329800
v 0.100000 1.243778 -1.095300
v 0.555869 1.177765 -1.329800
v 0.624553 1.343582 -1.329800
v 0.242087 1.599138 -1.095300
v 0.637993 1.363696 -1.329800
v 0.764903 1.490607 -1.329800
v 0.509348 1.873073 -1.095300
v 0.785018 1.504046 -1.329800
v 0.950834 1.572730 -1.329800
v 0.861095 2.023880 -1.095300
v 0.974560 1.577449 -1.329800
v 1.154039 1.577449 -1.329800
v 1.243778 2.028599 -1.095300
v 1.177765 1.572730 -1.329800
v 1.343582 1.504046 -1.329800
v 1.599138 1.886513 -1.095300
v 1.363696 1.490606 -1.329800
v 1.490607 1.363696 -1.329800
v 1.873073 1.619252 -1.095300
v 1.504046 1.343582 -1.329800
v 1.727833 1.064300 -1.251633
v 2.028599 1.064300 -1.095300
v 1.677324 0.810376 -1.251633
v 1.955196 0.695278 -1.095300
v 1.533488 0.595111 -1.251633
v 1.746162 0.382437 -1.095300
v 1.318223 0.451275 -1.251633
v 1.433321 0.173403 -1.095300
v 1.064300 0.400766 -1.251633
v 1.064300 0.100000 -1.095300
v 0.810376 0.451275 -1.251633
v 0.695278 0.173403 -1.095300
v 0.595111 0.595111 -1.251633
v 0.382437 0.382437 -1.095300
v 0.451275 0.810377 -1.251633
v 0.173403 0.695278 -1.095300
v 0.400766 1.064300 -1.251633
v 0.100000 1.064300 -1.095300
v 0.451275 1.318223 -1.251633
v 0.173403 1.433321 -1.095300
v 0.595111 1.533488 -1.251633
v 0.382437 1.746162 -1.095300
v 0.810377 1.677324 -1.251633
v 0.695278 1.955196 -1.095300
v 1.064300 1.727833 -1.251633
v 1.064300 2.028599 -1.095300
v 1.318223 1.677324 -1.251633
v 1.433321 1.955196 -1.095300
v 1.533488 1.533488 -1.251633
v 1.746162 1.746162 -1.095300
v 1.677324 1.318223 -1.251633
v 1.955196 1.433321 -1.095300
v 0.104720 0.861095 -1.064300
v 0.100000 1.064300 -1.064300
v 0.100000 1.243778 -1.064300
v 0.104720 1.267504 -1.064300
v 0.173403 0.695278 -1.064300
v 1.891899 0.721497 -1.064300
v 1.955196 0.695278 -1.064300
v 1.886513 0.529462 -1.064300
v 1.873073 0.509347 -1.064300
v 1.828195 0.567701 -1.064300
v 1.815427 0.548592 -1.064300
v 1.746162 0.382437 -1.064300
v 1.697717 0.430882 -1.064300
v 1.619252 0.255526 -1.064300
v 1.599138 0.242087 -1.064300
v 1.580007 0.313172 -1.064300
v 1.560898 0.300404 -1.064300
v 1.433321 0.173403 -1.064300
v 1.407103 0.236700 -1.064300
v 1.267504 0.104720 -1.064300
v 1.253307 0.172995 -1.064300
v 1.243778 0.100000 -1.064300
v 1.230767 0.168512 -1.064300
v 1.064300 0.168512 -1.064300
v 1.064300 0.100000 -1.064300
v 0.897832 0.168512 -1.064300
v 0.884821 0.100000 -1.064300
v 0.875292 0.172996 -1.064300
v 0.861095 0.104720 -1.064300
v 0.721496 0.236700 -1.064300
v 0.695278 0.173403 -1.064300
v 0.567701 0.300404 -1.064300
v 0.548592 0.313172 -1.064300
v 0.529462 0.242087 -1.064300
v 0.509347 0.255526 -1.064300
v 0.430882 0.430882 -1.064300
v 0.382437 0.382437 -1.064300
v 0.313172 0.548592 -1.064300
v 0.300404 0.567701 -1.064300
v 0.255526 0.509347 -1.064300
v 0.242086 0.529462 -1.064300
v 0.236700 0.721497 -1.064300
v 0.172995 0.875292 -1.064300
v 0.168512 0.897832 -1.064300
v 0.168512 1.064300 -1.064300
v 0.168512 1.230767 -1.064300
v 0.172996 1.253307 -1.064300
v 0.173403 1.433321 -1.064300
v 0.236700 1.407103 -1.064300
v 0.242087 1.599138 -1.064300
v 0.300404 1.560898 -1.064300
v 0.255526 1.619252 -1.064300
v 0.382437 1.746162 -1.064300
v 0.313172 1.580007 -1.064300
v 0.430882 1.697717 -1.064300
v 0.509348 1.873073 -1.064300
v 0.548593 1.815427 -1.064300
v 0.529462 1.886513 -1.064300
v 0.695278 1.955196 -1.064300
v 0.567701 1.828195 -1.064300
v 0.721497 1.891900 -1.064300
v 0.861095 2.023880 -1.064300
v 0.875292 1.955604 -1.064300
v 0.884821 2.028599 -1.064300
v 0.897832 1.960087 -1.064300
v 1.064300 2.028599 -1.064300
v 1.064300 1.960087 -1.064300
v 1.230767 1.960087 -1.064300
v 1.243778 2.028599 -1.064300
v 1.253307 1.955604 -1.064300
v 1.267505 2.023880 -1.064300
v 1.407103 1.891899 -1.064300
v 1.433321 1.955196 -1.064300
v 1.560899 1.828195 -1.064300
v 1.599138 1.886513 -1.064300
v 1.580007 1.815427 -1.064300
v 1.697717 1.697717 -1.064300
v 1.955604 0.875292 -1.064300
v 2.023880 0.861095 -1.064300
v 1.960087 0.897832 -1.064300
v 1.960087 1.064300 -1.064300
v 1.960087 1.230767 -1.064300
v 2.023880 1.267504 -1.064300
v 2.028599 1.243778 -1.064300
v 2.028599 1.064300 -1.064300
v 2.028599 0.884821 -1.064300
v 1.955604 1.253307 -1.064300
v 1.955196 1.433321 -1.064300
v 1.891900 1.407103 -1.064300
v 1.886513 1.599138 -1.064300
v 1.873073 1.619252 -1.064300
v 1.828195 1.560898 -1.064300
v 1.815427 1.580007 -1.064300
v 1.746162 1.746162 -1.064300
v 1.619252 1.873073 -1.064300
v 0.100000 0.884821 -1.064300
v 1.022651 1.105948 -1.499300
v 1.009883 1.086840 -1.499300
v 1.009883 1.041760 -1.499300
v 1.022651 1.022651 -1.499300
v 1.041760 1.118716 -1.499300
v 1.041760 1.009883 -1.499300
v 1.064300 1.005400 -1.499300
v 1.064300 1.123200 -1.499300
v 1.086840 1.009883 -1.499300
v 1.086840 1.118716 -1.499300
v 1.105948 1.022651 -1.499300
v 1.105948 1.105948 -1.499300
v 1.118716 1.086840 -1.499300
v 1.118716 1.041759 -1.499300
v 1.123200 1.064300 -1.499300
v 1.551792 1.149552 -1.276525
v 1.547308 1.172092 -1.276525
v 1.551792 0.979047 -1.276525
v 1.482059 0.798982 -1.276525
v 1.348726 0.659308 -1.276525
v 1.172092 0.581291 -1.276525
v 0.979047 0.576807 -1.276525
v 0.798981 0.646540 -1.276525
v 0.659308 0.779873 -1.276525
v 0.581291 0.956507 -1.276525
v 1.005400 1.064300 -1.499300
v 0.576807 1.149552 -1.276525
v 0.646540 1.329618 -1.276525
v 0.779873 1.469291 -1.276525
v 0.956507 1.547308 -1.276525
v 1.149552 1.551792 -1.276525
v 1.329618 1.482059 -1.276525
v 1.469291 1.348726 -1.276525
v 1.694656 1.064300 -1.202266
v 1.646673 0.823073 -1.202266
v 1.547308 0.956507 -1.276525
v 1.510029 0.618570 -1.202266
v 1.469291 0.779873 -1.276525
v 1.305526 0.481926 -1.202266
v 1.329618 0.646540 -1.276525
v 1.064300 0.433943 -1.202266
v 1.149552 0.576807 -1.276525
v 0.823073 0.481926 -1.202266
v 0.956507 0.581291 -1.276525
v 0.618570 0.618570 -1.202266
v 0.779873 0.659308 -1.276525
v 0.481926 0.823073 -1.202266
v 0.646540 0.798982 -1.276525
v 0.433943 1.064300 -1.202266
v 0.576807 0.979047 -1.276525
v 0.481926 1.305527 -1.202266
v 0.581291 1.172092 -1.276525
v 0.618570 1.510029 -1.202266
v 0.659308 1.348726 -1.276525
v 0.823073 1.646673 -1.202266
v 0.798982 1.482059 -1.276525
v 1.064300 1.694656 -1.202266
v 0.979047 1.551792 -1.276525
v 1.305527 1.646673 -1.202266
v 1.172092 1.547308 -1.276525
v 1.510029 1.510029 -1.202266
v 1.348726 1.469291 -1.276525
v 1.646673 1.305526 -1.202266
v 1.482059 1.329618 -1.276525
v 0.551150 0.974560 -1.329800
v 0.100000 0.884821 -1.095300
v 1.267505 2.023880 -1.095300
v 1.088025 1.121579 -1.564300
v 1.599138 0.242086 -1.095300
v 1.828195 0.567701 -1.064299
v 1.580007 0.313172 -1.064300
v 1.253307 0.172996 -1.064300
v 0.897832 0.168512 -1.064300
v 0.567701 0.300404 -1.064299
v 0.313172 0.548593 -1.064300
v 0.168512 1.230767 -1.064300
v 0.300404 1.560899 -1.064300
v 0.548593 1.815427 -1.064300
v 1.230767 1.960087 -1.064300
v 1.560899 1.828195 -1.064299
v 1.815427 1.580007 -1.064300
v 1.891899 0.721497 -1.064300
v 1.955604 0.875292 -1.064300
v 1.697717 0.430882 -1.064300
v 1.815427 0.548592 -1.064299
v 1.407103 0.236700 -1.064300
v 1.560898 0.300404 -1.064300
v 1.230767 0.168512 -1.064300
v 0.430882 0.430882 -1.064300
v 0.548592 0.313172 -1.064300
v 0.300404 0.567701 -1.064300
v 0.168512 1.064300 -1.064300
v 0.430882 1.697717 -1.064300
v 0.313172 1.580007 -1.064300
v 0.721497 1.891899 -1.064300
v 0.567701 1.828195 -1.064300
v 1.064300 1.960087 -1.064300
v 1.891899 1.407103 -1.064300
v 1.828195 1.560898 -1.064300
v 0.100000 0.884821 -1.095300
v 1.886513 1.599138 -1.095300
v 1.619252 1.873073 -1.095300
v 0.884821 2.028599 -1.095300
v 0.529462 1.886513 -1.095300
v 0.255526 1.619252 -1.095300
v 0.104720 1.267504 -1.095300
v 0.242086 0.529462 -1.095300
v 0.509347 0.255526 -1.095300
v 0.861095 0.104720 -1.095300
v 1.243778 0.100000 -1.095300
v 1.873073 0.509347 -1.095300
v 2.023880 0.861095 -1.095300
vn -0.000000 0.000000 1.000000
vn -0.445500 -0.088600 0.890900
vn -0.445500 0.088600 0.890900
vn -0.377600 0.252300 0.890900
vn -0.252300 0.377600 0.890900
vn -0.088600 0.445500 0.890900
vn 0.088600 0.445500 0.890900
vn 0.252300 0.377600 0.890900
vn 0.377600 0.252300 0.890900
vn 0.445500 0.088600 0.890900
vn 0.445500 -0.088600 0.890900
vn 0.377600 -0.252300 0.890900
vn 0.252300 -0.377600 0.890900
vn 0.088600 -0.445500 0.890900
vn -0.088600 -0.445500 0.890900
vn -0.252300 -0.377600 0.890900
vn -0.377600 -0.252300 0.890900
vn -0.461200 -0.000000 0.887300
vn -0.426100 0.176500 0.887300
vn -0.326100 0.326100 0.887300
vn -0.176500 0.426100 0.887300
vn 0.000000 0.461200 0.887300
vn 0.176500 0.426100 0.887300
vn 0.326100 0.326100 0.887300
vn 0.426100 0.176500 0.887300
vn 0.461200 0.000000 0.887300
vn 0.426100 -0.176500 0.887300
vn 0.326100 -0.326100 0.887300
vn 0.176500 -0.426100 0.887300
vn -0.000000 -0.461200 0.887300
vn -0.176500 -0.426100 0.887300
vn -0.326100 -0.326100 0.887300
vn -0.426100 -0.176500 0.887300
vn 0.000000 0.000000 -1.000000
vn -0.980800 0.195100 0.000000
vn -0.831500 0.555600 0.000000
vn -0.555600 0.831500 -0.000000
vn -0.195100 0.980800 0.000000
vn 0.195100 0.980800 0.000000
vn 0.555600 0.831500 0.000000
vn 0.831500 0.555600 0.000000
vn 0.980800 0.195100 0.000000
vn 0.980800 -0.195100 0.000000
vn 0.831500 -0.555600 0.000000
vn 0.555600 -0.831500 0.000000
vn 0.195100 -0.980800 0.000000
vn -0.195100 -0.980800 0.000000
vn -0.555600 -0.831500 0.000000
vn -0.831500 -0.555600 0.000000
vn -0.980800 -0.195100 0.000000
vn -1.000000 0.000000 0.000000
vn -0.923900 0.382700 0.000000
vn -0.707100 0.707100 -0.000000
vn -0.382700 0.923900 0.000000
vn 0.000000 1.000000 0.000000
vn 0.382700 0.923900 0.000000
vn 0.707100 0.707100 0.000000
vn 0.923900 0.382700 0.000000
vn 1.000000 0.000000 0.000000
vn 0.923900 -0.382700 0.000000
vn 0.707100 -0.707100 0.000000
vn 0.382700 -0.923900 0.000000
vn 0.000000 -1.000000 0.000000
vn -0.382700 -0.923900 0.000000
vn -0.707100 -0.707100 0.000000
vn -0.923900 -0.382700 0.000000
vn -0.112400 0.415000 -0.902800
vn -0.447200 0.000000 -0.894400
usemtl None
s off
f 1//1 2//1 3//1
f 1//1 3//1 4//1
f 5//1 1//1 4//1
f 5//1 4//1 6//1
f 5//1 6//1 7//1
f 8//1 5//1 7//1
f 8//1 7//1 9//1
f 10//1 8//1 9//1
f 10//1 9//1 11//1
f 12//1 10//1 11//1
f 13//1 12//1 11//1
f 13//1 11//1 14//1
f 13//1 14//1 15//1
f 16//2 17//2 18//2
f 15//2 16//2 19//2
f 20//3 15//3 14//3
f 21//3 20//3 22//3
f 23//4 14//4 11//4
f 24//4 23//4 25//4
f 26//5 11//5 9//5
f 27//5 26//5 28//5
f 29//6 9//6 7//6
f 30//6 29//6 31//6
f 32//7 7//7 6//7
f 33//7 32//7 34//7
f 35//8 6//8 4//8
f 36//8 35//8 37//8
f 38//9 4//9 3//9
f 39//9 38//9 40//9
f 41//10 3//10 42//10
f 43//10 41//10 44//10
f 45//11 42//11 2//11
f 46//11 45//11 47//11
f 48//12 2//12 1//12
f 49//12 48//12 50//12
f 51//13 1//13 5//13
f 52//13 51//13 53//13
f 54//14 5//14 8//14
f 55//14 54//14 56//14
f 57//15 8//15 10//15
f 58//15 57//15 59//15
f 60//16 10//16 12//16
f 61//16 60//16 62//16
f 63//17 12//17 13//17
f 64//17 63//17 65//17
f 16//18 66//18 67//18
f 20//18 66//18 16//18
f 67//18 66//18 20//18
f 22//19 68//19 69//19
f 23//19 68//19 22//19
f 69//19 68//19 23//19
f 25//20 70//20 71//20
f 26//20 70//20 25//20
f 71//20 70//20 26//20
f 28//21 72//21 73//21
f 29//21 72//21 28//21
f 73//21 72//21 29//21
f 31//22 74//22 75//22
f 32//22 74//22 31//22
f 75//22 74//22 32//22
f 34//23 76//23 77//23
f 35//23 76//23 34//23
f 77//23 76//23 35//23
f 37//24 78//24 79//24
f 38//24 78//24 37//24
f 79//24 78//24 38//24
f 40//25 80//25 81//25
f 41//25 80//25 40//25
f 81//25 80//25 41//25
f 45//26 82//26 44//26
f 83//26 82//26 45//26
f 47//27 84//27 85//27
f 48//27 84//27 47//27
f 85//27 84//27 48//27
f 50//28 86//28 87//28
f 51//28 86//28 50//28
f 87//28 86//28 51//28
f 53//29 88//29 89//29
f 54//29 88//29 53//29
f 89//29 88//29 54//29
f 56//30 90//30 91//30
f 57//30 90//30 56//30
f 91//30 90//30 57//30
f 59//31 92//31 93//31
f 93//31 92//31 60//31
f 62//32 94//32 95//32
f 63//32 94//32 62//32
f 95//32 94//32 63//32
f 65//33 96//33 97//33
f 19//33 96//33 65//33
f 97//33 96//33 19//33
f 98//34 99//34 100//34
f 98//34 100//34 101//34
f 102//34 98//34 101//34
f 103//34 104//34 105//34
f 103//34 105//34 106//34
f 107//34 103//34 106//34
f 108//34 107//34 106//34
f 108//34 106//34 109//34
f 110//34 108//34 109//34
f 110//34 109//34 111//34
f 110//34 111//34 112//34
f 113//34 110//34 112//34
f 114//34 113//34 112//34
f 114//34 112//34 115//34
f 116//34 114//34 115//34
f 116//34 115//34 117//34
f 118//34 116//34 117//34
f 118//34 117//34 119//34
f 120//34 118//34 119//34
f 121//34 120//34 119//34
f 121//34 119//34 122//34
f 123//34 121//34 122//34
f 123//34 122//34 124//34
f 125//34 123//34 124//34
f 125//34 124//34 126//34
f 127//34 125//34 126//34
f 127//34 126//34 128//34
f 129//34 127//34 128//34
f 130//34 129//34 128//34
f 130//34 128//34 131//34
f 130//34 131//34 132//34
f 133//34 130//34 132//34
f 133//34 132//34 134//34
f 135//34 133//34 134//34
f 136//34 135//34 134//34
f 136//34 134//34 137//34
f 136//34 137//34 138//34
f 139//34 136//34 138//34
f 139//34 138//34 102//34
f 140//34 139//34 102//34
f 141//34 140//34 102//34
f 141//34 102//34 101//34
f 142//34 141//34 101//34
f 143//34 142//34 101//34
f 144//34 143//34 101//34
f 144//34 101//34 145//34
f 146//34 144//34 145//34
f 146//34 145//34 147//34
f 148//34 146//34 147//34
f 148//34 147//34 149//34
f 148//34 149//34 150//34
f 151//34 148//34 150//34
f 152//34 151//34 150//34
f 152//34 150//34 153//34
f 154//34 152//34 153//34
f 154//34 153//34 155//34
f 154//34 155//34 156//34
f 157//34 154//34 156//34
f 158//34 157//34 156//34
f 158//34 156//34 159//34
f 160//34 158//34 159//34
f 160//34 159//34 161//34
f 162//34 160//34 161//34
f 162//34 161//34 163//34
f 164//34 162//34 163//34
f 165//34 164//34 163//34
f 165//34 163//34 166//34
f 167//34 165//34 166//34
f 167//34 166//34 168//34
f 169//34 167//34 168//34
f 169//34 168//34 170//34
f 171//34 169//34 170//34
f 171//34 170//34 172//34
f 173//34 171//34 172//34
f 174//34 173//34 172//34
f 104//34 103//34 175//34
f 176//34 104//34 175//34
f 176//34 175//34 177//34
f 176//34 177//34 178//34
f 176//34 178//34 179//34
f 180//34 181//34 182//34
f 180//34 182//34 183//34
f 180//34 183//34 176//34
f 180//34 176//34 179//34
f 180//34 179//34 184//34
f 185//34 180//34 184//34
f 185//34 184//34 186//34
f 187//34 185//34 186//34
f 188//34 187//34 186//34
f 188//34 186//34 189//34
f 188//34 189//34 190//34
f 191//34 188//34 190//34
f 191//34 190//34 174//34
f 192//34 191//34 174//34
f 192//34 174//34 172//34
f 176//35 183//35 21//35
f 106//36 105//36 24//36
f 112//37 111//37 27//37
f 119//38 117//38 30//38
f 126//39 124//39 33//39
f 132//40 131//40 36//40
f 138//41 137//41 39//41
f 193//42 98//42 43//42
f 101//43 100//43 46//43
f 149//44 147//44 49//44
f 155//45 153//45 52//45
f 161//46 159//46 55//46
f 168//47 166//47 58//47
f 192//48 172//48 61//48
f 187//49 188//49 64//49
f 181//50 180//50 18//50
f 21//51 183//51 182//51
f 67//51 182//51 181//51
f 24//52 105//52 104//52
f 69//52 104//52 176//52
f 27//53 111//53 109//53
f 71//53 109//53 106//53
f 30//54 117//54 115//54
f 33//55 124//55 122//55
f 75//55 122//55 119//55
f 36//56 131//56 128//56
f 77//56 128//56 126//56
f 39//57 137//57 134//57
f 79//57 134//57 132//57
f 43//58 98//58 102//58
f 81//58 102//58 138//58
f 46//59 100//59 99//59
f 83//59 99//59 193//59
f 49//60 147//60 145//60
f 85//60 145//60 101//60
f 52//61 153//61 150//61
f 87//61 150//61 149//61
f 55//62 159//62 156//62
f 89//62 156//62 155//62
f 58//63 166//63 163//63
f 91//63 163//63 161//63
f 61//64 172//64 170//64
f 64//65 188//65 191//65
f 95//65 191//65 192//65
f 18//66 180//66 185//66
f 97//66 185//66 187//66
f 194//1 195//1 196//1
f 194//1 196//1 197//1
f 198//1 194//1 197//1
f 198//1 197//1 199//1
f 198//1 199//1 200//1
f 201//1 198//1 200//1
f 201//1 200//1 202//1
f 203//1 201//1 202//1
f 203//1 202//1 204//1
f 205//1 203//1 204//1
f 206//1 205//1 204//1
f 206//1 204//1 207//1
f 206//1 207//1 208//1
f 208//2 209//2 210//2
f 211//3 208//3 207//3
f 212//4 207//4 204//4
f 213//5 204//5 202//5
f 214//6 202//6 200//6
f 215//7 200//7 199//7
f 216//8 199//8 197//8
f 217//9 197//9 196//9
f 218//10 196//10 219//10
f 220//11 219//11 195//11
f 221//12 195//12 194//12
f 222//13 194//13 198//13
f 223//14 198//14 201//14
f 224//15 201//15 203//15
f 225//16 203//16 205//16
f 226//17 205//17 206//17
f 211//18 227//18 209//18
f 212//19 228//19 229//19
f 213//20 230//20 231//20
f 214//21 232//21 233//21
f 215//22 234//22 235//22
f 216//23 236//23 237//23
f 217//24 238//24 239//24
f 218//25 240//25 241//25
f 220//26 242//26 243//26
f 221//27 244//27 245//27
f 222//28 246//28 247//28
f 223//29 248//29 249//29
f 224//30 250//30 251//30
f 225//31 252//31 253//31
f 226//32 254//32 255//32
f 210//33 256//33 257//33
f 44//63 258//63 259//63
f 258//26 82//26 83//26
f 59//31 60//31 92//31
f 112//54 262//54 115//54
f 93//64 170//64 168//64
f 209//2 179//2 184//2
f 177//3 211//3 229//3
f 263//4 212//4 231//4
f 264//5 213//5 233//5
f 265//6 214//6 235//6
f 266//7 215//7 237//7
f 267//8 216//8 239//8
f 268//9 217//9 241//9
f 140//10 218//10 243//10
f 269//11 220//11 245//11
f 270//12 221//12 247//12
f 271//13 222//13 249//13
f 160//14 223//14 251//14
f 272//15 224//15 253//15
f 273//16 225//16 255//16
f 274//17 226//17 257//17
f 227//18 178//18 179//18
f 178//18 227//18 211//18
f 228//19 275//19 276//19
f 275//19 228//19 212//19
f 230//20 277//20 278//20
f 277//20 230//20 213//20
f 232//21 279//21 280//21
f 279//21 232//21 214//21
f 234//22 121//22 281//22
f 121//22 234//22 215//22
f 236//23 127//23 125//23
f 127//23 236//23 216//23
f 238//24 282//24 283//24
f 282//24 238//24 217//24
f 240//25 139//25 284//25
f 139//25 240//25 218//25
f 242//26 285//26 141//26
f 285//26 242//26 220//26
f 244//27 146//27 144//27
f 146//27 244//27 221//27
f 246//28 286//28 287//28
f 286//28 246//28 222//28
f 248//29 288//29 289//29
f 288//29 248//29 223//29
f 250//30 290//30 162//30
f 290//30 250//30 224//30
f 252//31 169//31 167//31
f 169//31 252//31 225//31
f 254//32 174//32 173//32
f 174//32 254//32 226//32
f 256//33 291//33 292//33
f 291//33 256//33 210//33
f 210//33 184//33 291//33
f 292//33 257//33 256//33
f 226//32 274//32 174//32
f 173//32 255//32 254//32
f 225//31 273//31 169//31
f 167//31 253//31 252//31
f 224//30 272//30 290//30
f 162//30 251//30 250//30
f 223//29 160//29 288//29
f 289//29 249//29 248//29
f 222//28 271//28 286//28
f 287//28 247//28 246//28
f 221//27 270//27 146//27
f 144//27 245//27 244//27
f 220//26 269//26 285//26
f 141//26 243//26 242//26
f 218//25 140//25 139//25
f 284//25 241//25 240//25
f 217//24 268//24 282//24
f 283//24 239//24 238//24
f 216//23 267//23 127//23
f 125//23 237//23 236//23
f 215//22 266//22 121//22
f 281//22 235//22 234//22
f 214//21 265//21 279//21
f 280//21 233//21 232//21
f 213//20 264//20 277//20
f 278//20 231//20 230//20
f 212//19 263//19 275//19
f 276//19 229//19 228//19
f 211//18 177//18 178//18
f 179//18 209//18 227//18
f 257//17 292//17 274//17
f 255//16 173//16 273//16
f 253//15 167//15 272//15
f 251//14 162//14 160//14
f 249//13 289//13 271//13
f 247//12 287//12 270//12
f 245//11 144//11 269//11
f 243//10 141//10 140//10
f 241//9 284//9 268//9
f 239//8 283//8 267//8
f 237//7 125//7 266//7
f 235//6 281//6 265//6
f 233//5 280//5 264//5
f 231//4 278//4 263//4
f 229//3 276//3 177//3
f 184//2 210//2 209//2
f 168//64 260//64 93//64
f 262//54 73//54 115//54
f 59//31 261//31 60//31
f 83//26 259//26 258//26
f 59//67 10//67 261//67
f 259//68 293//68 44//68
f 257//33 206//33 210//33
f 255//32 205//32 226//32
f 253//31 203//31 225//31
f 251//30 201//30 224//30
f 249//29 198//29 223//29
f 247//28 194//28 222//28
f 245//27 195//27 221//27
f 243//26 219//26 220//26
f 241//25 196//25 218//25
f 239//24 197//24 217//24
f 237//23 199//23 216//23
f 235//22 200//22 215//22
f 233//21 202//21 214//21
f 231//20 204//20 213//20
f 229//19 207//19 212//19
f 209//18 208//18 211//18
f 206//17 257//17 226//17
f 205//16 255//16 225//16
f 203//15 253//15 224//15
f 201//14 251//14 223//14
f 198//13 249//13 222//13
f 194//12 247//12 221//12
f 195//11 245//11 220//11
f 219//10 243//10 218//10
f 196//9 241//9 217//9
f 197//8 239//8 216//8
f 199//7 237//7 215//7
f 200//6 235//6 214//6
f 202//5 233//5 213//5
f 204//4 231//4 212//4
f 207//3 229//3 211//3
f 210//2 206//2 208//2
f 195//1 219//1 196//1
f 187//66 294//66 97//66
f 185//66 97//66 18//66
f 192//65 295//65 95//65
f 191//65 95//65 64//65
f 170//64 93//64 61//64
f 161//63 296//63 91//63
f 163//63 91//63 58//63
f 155//62 297//62 89//62
f 156//62 89//62 55//62
f 149//61 298//61 87//61
f 150//61 87//61 52//61
f 101//60 299//60 85//60
f 145//60 85//60 49//60
f 193//59 293//59 83//59
f 99//59 83//59 46//59
f 138//58 300//58 81//58
f 102//58 81//58 43//58
f 132//57 301//57 79//57
f 134//57 79//57 39//57
f 126//56 302//56 77//56
f 128//56 77//56 36//56
f 119//55 303//55 75//55
f 122//55 75//55 33//55
f 115//54 73//54 30//54
f 106//53 304//53 71//53
f 109//53 71//53 27//53
f 176//52 305//52 69//52
f 104//52 69//52 24//52
f 181//51 17//51 67//51
f 182//51 67//51 21//51
f 18//50 17//50 181//50
f 64//49 294//49 187//49
f 61//48 295//48 192//48
f 58//47 260//47 168//47
f 55//46 296//46 161//46
f 52//45 297//45 155//45
f 49//44 298//44 149//44
f 46//43 299//43 101//43
f 43//42 293//42 193//42
f 39//41 300//41 138//41
f 36//40 301//40 132//40
f 33//39 302//39 126//39
f 30//38 303//38 119//38
f 27//37 262//37 112//37
f 24//36 304//36 106//36
f 21//35 305//35 176//35
f 98//34 193//34 99//34
f 19//33 18//33 97//33
f 65//33 13//33 19//33
f 97//33 294//33 65//33
f 63//32 64//32 95//32
f 62//32 12//32 63//32
f 95//32 295//32 62//32
f 60//31 61//31 93//31
f 93//31 260//31 59//31
f 57//30 58//30 91//30
f 56//30 8//30 57//30
f 91//30 296//30 56//30
f 54//29 55//29 89//29
f 53//29 5//29 54//29
f 89//29 297//29 53//29
f 51//28 52//28 87//28
f 50//28 1//28 51//28
f 87//28 298//28 50//28
f 48//27 49//27 85//27
f 47//27 2//27 48//27
f 85//27 299//27 47//27
f 45//26 46//26 83//26
f 44//26 42//26 45//26
f 41//25 43//25 81//25
f 40//25 3//25 41//25
f 81//25 300//25 40//25
f 38//24 39//24 79//24
f 37//24 4//24 38//24
f 79//24 301//24 37//24
f 35//23 36//23 77//23
f 34//23 6//23 35//23
f 77//23 302//23 34//23
f 32//22 33//22 75//22
f 31//22 7//22 32//22
f 75//22 303//22 31//22
f 29//21 30//21 73//21
f 28//21 9//21 29//21
f 73//21 262//21 28//21
f 26//20 27//20 71//20
f 25//20 11//20 26//20
f 71//20 304//20 25//20
f 23//19 24//19 69//19
f 22//19 14//19 23//19
f 69//19 305//19 22//19
f 20//18 21//18 67//18
f 16//18 15//18 20//18
f 67//18 17//18 16//18
f 65//17 294//17 64//17
f 13//17 65//17 63//17
f 62//16 295//16 61//16
f 12//16 62//16 60//16
f 59//15 260//15 58//15
f 10//15 59//15 57//15
f 56//14 296//14 55//14
f 8//14 56//14 54//14
f 53//13 297//13 52//13
f 5//13 53//13 51//13
f 50//12 298//12 49//12
f 1//12 50//12 48//12
f 47//11 299//11 46//11
f 2//11 47//11 45//11
f 44//10 293//10 43//10
f 42//10 44//10 41//10
f 40//9 300//9 39//9
f 3//9 40//9 38//9
f 37//8 301//8 36//8
f 4//8 37//8 35//8
f 34//7 302//7 33//7
f 6//7 34//7 32//7
f 31//6 303//6 30//6
f 7//6 31//6 29//6
f 28//5 262//5 27//5
f 9//5 28//5 26//5
f 25//4 304//4 24//4
f 11//4 25//4 23//4
f 22//3 305//3 21//3
f 14//3 22//3 20//3
f 19//2 13//2 15//2
f 18//2 19//2 16//2
f 2//1 42//1 3//1
